<mxfile host="65bd71144e">
    <diagram id="XGJ86zKkI4B_-954T-Bo" name="Page-1">
        <mxGraphModel dx="1595" dy="1008" grid="1" gridSize="10" guides="1" tooltips="1" connect="1" arrows="1" fold="1" page="1" pageScale="1" pageWidth="827" pageHeight="1169" background="none" math="0" shadow="0">
            <root>
                <mxCell id="0"/>
                <mxCell id="1" parent="0"/>
                <mxCell id="28" value="" style="html=1;dashed=0;whitespace=wrap;shape=mxgraph.dfd.start;rounded=1;fontFamily=Open Sans;fontSource=https%3A%2F%2Ffonts.googleapis.com%2Fcss%3Ffamily%3DOpen%2BSans;fillStyle=auto;shadow=1;fontStyle=1;strokeWidth=2;fillColor=#A6B8FF;strokeColor=#000000;" vertex="1" parent="1">
                    <mxGeometry x="30" y="80" width="370" height="210" as="geometry"/>
                </mxCell>
                <mxCell id="22" value="" style="shape=ext;double=1;rounded=1;whiteSpace=wrap;html=1;fontFamily=Open Sans;fontSource=https%3A%2F%2Ffonts.googleapis.com%2Fcss%3Ffamily%3DOpen%2BSans;fillStyle=auto;shadow=1;fontStyle=1;strokeColor=#000000;strokeWidth=2;fillColor=#FFFFCC;" vertex="1" parent="1">
                    <mxGeometry x="90" y="390" width="440" height="280" as="geometry"/>
                </mxCell>
                <mxCell id="21" value="" style="ellipse;shape=cloud;whiteSpace=wrap;html=1;fontFamily=Open Sans;fontSource=https%3A%2F%2Ffonts.googleapis.com%2Fcss%3Ffamily%3DOpen%2BSans;fillStyle=solid;shadow=1;gradientColor=none;fillColor=#9CFF9F;strokeColor=#000000;fontColor=#000000;strokeWidth=2;fontStyle=1;" vertex="1" parent="1">
                    <mxGeometry x="460" y="50" width="350" height="250" as="geometry"/>
                </mxCell>
                <mxCell id="7" style="edgeStyle=none;html=1;exitX=1;exitY=0.5;exitDx=0;exitDy=0;exitPerimeter=0;entryX=0;entryY=0.5;entryDx=0;entryDy=0;entryPerimeter=0;fontFamily=Open Sans;fontSource=https%3A%2F%2Ffonts.googleapis.com%2Fcss%3Ffamily%3DOpen%2BSans;shadow=1;fontStyle=1;" edge="1" parent="1" source="2" target="3">
                    <mxGeometry relative="1" as="geometry"/>
                </mxCell>
                <mxCell id="2" value="" style="fontColor=#0066CC;verticalAlign=top;verticalLabelPosition=bottom;labelPosition=center;align=center;html=1;outlineConnect=0;fillColor=#CCCCCC;strokeColor=#6881B3;gradientColor=none;gradientDirection=north;strokeWidth=2;shape=mxgraph.networks.users;fontFamily=Open Sans;fontSource=https%3A%2F%2Ffonts.googleapis.com%2Fcss%3Ffamily%3DOpen%2BSans;shadow=1;fontStyle=1;" vertex="1" parent="1">
                    <mxGeometry x="70" y="142.5" width="90" height="100" as="geometry"/>
                </mxCell>
                <mxCell id="10" style="edgeStyle=none;html=1;exitX=0.5;exitY=1;exitDx=0;exitDy=0;exitPerimeter=0;entryX=0.5;entryY=0;entryDx=0;entryDy=0;entryPerimeter=0;fontFamily=Open Sans;fontSource=https%3A%2F%2Ffonts.googleapis.com%2Fcss%3Ffamily%3DOpen%2BSans;shadow=1;fontStyle=1;" edge="1" parent="1" source="3" target="5">
                    <mxGeometry relative="1" as="geometry">
                        <Array as="points">
                            <mxPoint x="298" y="320"/>
                            <mxPoint x="220" y="350"/>
                        </Array>
                    </mxGeometry>
                </mxCell>
                <mxCell id="3" value="" style="fontColor=#0066CC;verticalAlign=top;verticalLabelPosition=bottom;labelPosition=center;align=center;html=1;outlineConnect=0;fillColor=#CCCCCC;strokeColor=#6881B3;gradientColor=none;gradientDirection=north;strokeWidth=2;shape=mxgraph.networks.tablet;fontFamily=Open Sans;fontSource=https%3A%2F%2Ffonts.googleapis.com%2Fcss%3Ffamily%3DOpen%2BSans;shadow=1;fontStyle=1;" vertex="1" parent="1">
                    <mxGeometry x="247.5" y="157.5" width="100" height="70" as="geometry"/>
                </mxCell>
                <mxCell id="13" style="edgeStyle=none;html=1;exitX=0;exitY=0.5;exitDx=0;exitDy=0;exitPerimeter=0;entryX=0.88;entryY=0.5;entryDx=0;entryDy=0;entryPerimeter=0;fontFamily=Open Sans;fontSource=https%3A%2F%2Ffonts.googleapis.com%2Fcss%3Ffamily%3DOpen%2BSans;shadow=1;fontStyle=1;" edge="1" parent="1" source="4" target="5">
                    <mxGeometry relative="1" as="geometry"/>
                </mxCell>
                <mxCell id="14" style="edgeStyle=none;html=1;exitX=1;exitY=0.5;exitDx=0;exitDy=0;exitPerimeter=0;entryX=0.5;entryY=0.94;entryDx=0;entryDy=0;entryPerimeter=0;fontFamily=Open Sans;fontSource=https%3A%2F%2Ffonts.googleapis.com%2Fcss%3Ffamily%3DOpen%2BSans;shadow=1;fontStyle=1;" edge="1" parent="1" source="4" target="6">
                    <mxGeometry relative="1" as="geometry">
                        <Array as="points">
                            <mxPoint x="650" y="513"/>
                        </Array>
                    </mxGeometry>
                </mxCell>
                <mxCell id="4" value="" style="fontColor=#0066CC;verticalAlign=top;verticalLabelPosition=bottom;labelPosition=center;align=center;html=1;outlineConnect=0;fillColor=#CCCCCC;strokeColor=#6881B3;gradientColor=none;gradientDirection=north;strokeWidth=2;shape=mxgraph.networks.server;fontFamily=Open Sans;fontSource=https%3A%2F%2Ffonts.googleapis.com%2Fcss%3Ffamily%3DOpen%2BSans;shadow=1;fontStyle=1;" vertex="1" parent="1">
                    <mxGeometry x="362.5" y="462.5" width="90" height="100" as="geometry"/>
                </mxCell>
                <mxCell id="11" style="edgeStyle=none;html=1;exitX=0.5;exitY=0;exitDx=0;exitDy=0;exitPerimeter=0;entryX=0.5;entryY=1;entryDx=0;entryDy=0;entryPerimeter=0;fontFamily=Open Sans;fontSource=https%3A%2F%2Ffonts.googleapis.com%2Fcss%3Ffamily%3DOpen%2BSans;shadow=1;fontStyle=1;" edge="1" parent="1" source="5" target="3">
                    <mxGeometry relative="1" as="geometry">
                        <Array as="points">
                            <mxPoint x="220" y="350"/>
                            <mxPoint x="298" y="320"/>
                        </Array>
                    </mxGeometry>
                </mxCell>
                <mxCell id="12" style="edgeStyle=none;html=1;exitX=0.88;exitY=0.5;exitDx=0;exitDy=0;exitPerimeter=0;entryX=0;entryY=0.5;entryDx=0;entryDy=0;entryPerimeter=0;fontFamily=Open Sans;fontSource=https%3A%2F%2Ffonts.googleapis.com%2Fcss%3Ffamily%3DOpen%2BSans;shadow=1;fontStyle=1;" edge="1" parent="1" source="5" target="4">
                    <mxGeometry relative="1" as="geometry"/>
                </mxCell>
                <mxCell id="5" value="" style="fontColor=#0066CC;verticalAlign=top;verticalLabelPosition=bottom;labelPosition=center;align=center;html=1;outlineConnect=0;fillColor=#CCCCCC;strokeColor=#6881B3;gradientColor=none;gradientDirection=north;strokeWidth=2;shape=mxgraph.networks.web_server;fontFamily=Open Sans;fontSource=https%3A%2F%2Ffonts.googleapis.com%2Fcss%3Ffamily%3DOpen%2BSans;shadow=1;fontStyle=1;" vertex="1" parent="1">
                    <mxGeometry x="165" y="460" width="105" height="105" as="geometry"/>
                </mxCell>
                <mxCell id="15" style="edgeStyle=none;html=1;entryX=1;entryY=0.5;entryDx=0;entryDy=0;entryPerimeter=0;exitX=0.5;exitY=0.94;exitDx=0;exitDy=0;exitPerimeter=0;fontFamily=Open Sans;fontSource=https%3A%2F%2Ffonts.googleapis.com%2Fcss%3Ffamily%3DOpen%2BSans;shadow=1;fontStyle=1;" edge="1" parent="1" source="6" target="4">
                    <mxGeometry relative="1" as="geometry">
                        <mxPoint x="690" y="290" as="sourcePoint"/>
                        <Array as="points">
                            <mxPoint x="650" y="513"/>
                        </Array>
                    </mxGeometry>
                </mxCell>
                <mxCell id="6" value="" style="fontColor=#0066CC;verticalAlign=top;verticalLabelPosition=bottom;labelPosition=center;align=center;html=1;outlineConnect=0;fillColor=#CCCCCC;strokeColor=#6881B3;gradientColor=none;gradientDirection=north;strokeWidth=2;shape=mxgraph.networks.server_storage;fontFamily=Open Sans;fontSource=https%3A%2F%2Ffonts.googleapis.com%2Fcss%3Ffamily%3DOpen%2BSans;shadow=1;fontStyle=1;" vertex="1" parent="1">
                    <mxGeometry x="595" y="140" width="105" height="105" as="geometry"/>
                </mxCell>
                <mxCell id="16" value="Kiosk Tablet" style="text;html=1;align=center;verticalAlign=middle;resizable=0;points=[];autosize=1;strokeColor=none;fillColor=none;fontFamily=Open Sans;fontSource=https%3A%2F%2Ffonts.googleapis.com%2Fcss%3Ffamily%3DOpen%2BSans;shadow=1;fontStyle=1;fontColor=#000000;" vertex="1" parent="1">
                    <mxGeometry x="255" y="122.5" width="90" height="30" as="geometry"/>
                </mxCell>
                <mxCell id="17" value="Users" style="text;html=1;align=center;verticalAlign=middle;resizable=0;points=[];autosize=1;strokeColor=none;fillColor=none;fontFamily=Open Sans;fontSource=https%3A%2F%2Ffonts.googleapis.com%2Fcss%3Ffamily%3DOpen%2BSans;shadow=1;fontStyle=1;fontColor=#000000;" vertex="1" parent="1">
                    <mxGeometry x="85" y="100" width="60" height="30" as="geometry"/>
                </mxCell>
                <mxCell id="18" value="Front End" style="text;html=1;align=center;verticalAlign=middle;resizable=0;points=[];autosize=1;strokeColor=none;fillColor=none;fontFamily=Open Sans;fontSource=https%3A%2F%2Ffonts.googleapis.com%2Fcss%3Ffamily%3DOpen%2BSans;shadow=1;fontStyle=1;fontColor=#000000;" vertex="1" parent="1">
                    <mxGeometry x="177.5" y="565" width="80" height="30" as="geometry"/>
                </mxCell>
                <mxCell id="19" value="Back End" style="text;html=1;align=center;verticalAlign=middle;resizable=0;points=[];autosize=1;strokeColor=none;fillColor=none;fontFamily=Open Sans;fontSource=https%3A%2F%2Ffonts.googleapis.com%2Fcss%3Ffamily%3DOpen%2BSans;shadow=1;fontStyle=1;fontColor=#000000;" vertex="1" parent="1">
                    <mxGeometry x="372.5" y="565" width="70" height="30" as="geometry"/>
                </mxCell>
                <mxCell id="20" value="MongoDB&lt;br&gt;Atlas" style="text;html=1;align=center;verticalAlign=middle;resizable=0;points=[];autosize=1;strokeColor=none;fillColor=none;fontFamily=Open Sans;fontSource=https%3A%2F%2Ffonts.googleapis.com%2Fcss%3Ffamily%3DOpen%2BSans;shadow=1;rounded=0;glass=0;fontColor=#000000;fontStyle=1;" vertex="1" parent="1">
                    <mxGeometry x="575" y="90" width="80" height="40" as="geometry"/>
                </mxCell>
                <mxCell id="23" value="LobbyLink App" style="text;html=1;align=center;verticalAlign=middle;resizable=0;points=[];autosize=1;strokeColor=none;fillColor=none;fontFamily=Open Sans;fontSource=https%3A%2F%2Ffonts.googleapis.com%2Fcss%3Ffamily%3DOpen%2BSans;shadow=1;fontStyle=1;fontColor=#000000;" vertex="1" parent="1">
                    <mxGeometry x="252.5" y="410" width="110" height="30" as="geometry"/>
                </mxCell>
                <mxCell id="24" value="React with vite&lt;br&gt;Bootstrap, MUI&lt;br&gt;+ more libraries" style="text;html=1;align=center;verticalAlign=middle;resizable=0;points=[];autosize=1;strokeColor=none;fillColor=none;fontFamily=Open Sans;fontSource=https%3A%2F%2Ffonts.googleapis.com%2Fcss%3Ffamily%3DOpen%2BSans;shadow=1;fontStyle=1;fontColor=#000000;" vertex="1" parent="1">
                    <mxGeometry x="130" y="595" width="110" height="60" as="geometry"/>
                </mxCell>
                <mxCell id="25" value="Node.js&lt;br&gt;Express&lt;br&gt;Mongoose" style="text;html=1;align=center;verticalAlign=middle;resizable=0;points=[];autosize=1;strokeColor=none;fillColor=none;fontFamily=Open Sans;fontSource=https%3A%2F%2Ffonts.googleapis.com%2Fcss%3Ffamily%3DOpen%2BSans;shadow=1;fontStyle=1;fontColor=#000000;" vertex="1" parent="1">
                    <mxGeometry x="425" y="595" width="80" height="60" as="geometry"/>
                </mxCell>
                <mxCell id="29" value="Database Requests&lt;br&gt;&amp;amp;&lt;br&gt;Responses" style="text;html=1;align=center;verticalAlign=middle;resizable=0;points=[];autosize=1;strokeColor=none;fillColor=none;fontFamily=Open Sans;fontSource=https%3A%2F%2Ffonts.googleapis.com%2Fcss%3Ffamily%3DOpen%2BSans;shadow=1;fontStyle=1;" vertex="1" parent="1">
                    <mxGeometry x="540" y="520" width="130" height="60" as="geometry"/>
                </mxCell>
                <mxCell id="30" value="Website Requests&lt;br&gt;&amp;amp;&lt;br&gt;Responses" style="text;html=1;align=center;verticalAlign=middle;resizable=0;points=[];autosize=1;strokeColor=none;fillColor=none;fontFamily=Open Sans;fontSource=https%3A%2F%2Ffonts.googleapis.com%2Fcss%3Ffamily%3DOpen%2BSans;shadow=1;fontStyle=1;" vertex="1" parent="1">
                    <mxGeometry x="100" y="310" width="120" height="60" as="geometry"/>
                </mxCell>
                <mxCell id="31" value="CRUD" style="text;html=1;align=center;verticalAlign=middle;resizable=0;points=[];autosize=1;strokeColor=none;fillColor=none;fontFamily=Open Sans;fontSource=https%3A%2F%2Ffonts.googleapis.com%2Fcss%3Ffamily%3DOpen%2BSans;shadow=1;fontStyle=1;" vertex="1" parent="1">
                    <mxGeometry x="575" y="480" width="60" height="30" as="geometry"/>
                </mxCell>
            </root>
        </mxGraphModel>
    </diagram>
</mxfile>